<svg width="24" height="24" viewBox="0 0 24 24" fill="none" xmlns="http://www.w3.org/2000/svg">
<path d="M19 3.25H5C3.48122 3.25 2.25 4.48122 2.25 6V19C2.25 20.5188 3.48122 21.75 5 21.75H19C20.5188 21.75 21.75 20.5188 21.75 19V6C21.75 4.48122 20.5188 3.25 19 3.25Z" fill="#BAD7FF"/>
<path d="M21.75 6V8.75H2.25V6C2.25 4.48 3.48 3.25 5 3.25H19C20.52 3.25 21.75 4.48 21.75 6ZM8 12.25H6C5.586 12.25 5.25 12.586 5.25 13C5.25 13.414 5.586 13.75 6 13.75H8C8.414 13.75 8.75 13.414 8.75 13C8.75 12.586 8.414 12.25 8 12.25ZM13 12.25H11C10.586 12.25 10.25 12.586 10.25 13C10.25 13.414 10.586 13.75 11 13.75H13C13.414 13.75 13.75 13.414 13.75 13C13.75 12.586 13.414 12.25 13 12.25ZM18 12.25H16C15.586 12.25 15.25 12.586 15.25 13C15.25 13.414 15.586 13.75 16 13.75H18C18.414 13.75 18.75 13.414 18.75 13C18.75 12.586 18.414 12.25 18 12.25ZM8 16.25H6C5.586 16.25 5.25 16.586 5.25 17C5.25 17.414 5.586 17.75 6 17.75H8C8.414 17.75 8.75 17.414 8.75 17C8.75 16.586 8.414 16.25 8 16.25ZM13 16.25H11C10.586 16.25 10.25 16.586 10.25 17C10.25 17.414 10.586 17.75 11 17.75H13C13.414 17.75 13.75 17.414 13.75 17C13.75 16.586 13.414 16.25 13 16.25ZM18 16.25H16C15.586 16.25 15.25 16.586 15.25 17C15.25 17.414 15.586 17.75 16 17.75H18C18.414 17.75 18.75 17.414 18.75 17C18.75 16.586 18.414 16.25 18 16.25Z" fill="#0068FF"/>
<path d="M8.75 3V5C8.75 5.414 8.414 5.75 8 5.75C7.586 5.75 7.25 5.414 7.25 5V3C7.25 2.586 7.586 2.25 8 2.25C8.414 2.25 8.75 2.586 8.75 3ZM16 2.25C15.586 2.25 15.25 2.586 15.25 3V5C15.25 5.414 15.586 5.75 16 5.75C16.414 5.75 16.75 5.414 16.75 5V3C16.75 2.586 16.414 2.25 16 2.25Z" fill="#BAD7FF"/>
</svg>
