<svg width="24" height="24" viewBox="0 0 24 24" fill="none" xmlns="http://www.w3.org/2000/svg">
<path fill-rule="evenodd" clip-rule="evenodd" d="M3.12509 21.0315L3.12635 21.0305L3.14075 21.0185C3.15447 21.0069 3.17611 20.9883 3.20412 20.9632C3.26028 20.9129 3.3413 20.8371 3.43518 20.7398C3.62501 20.5429 3.85696 20.2686 4.04414 19.9477C4.4151 19.3118 4.56731 18.5957 4.0251 17.867C2.75679 16.2785 1.8999 14.2525 1.8999 12C1.8999 6.6354 6.50279 2.40002 11.9999 2.40002C17.497 2.40002 22.0999 6.6354 22.0999 12C22.0999 17.3646 17.497 21.6 11.9999 21.6C11.054 21.6 10.2063 21.4947 9.35876 21.2832C8.74197 21.1388 8.40236 21.2475 7.70281 21.4712L7.54395 21.5219C6.71139 21.7862 5.57435 22.1 3.4999 22.1C3.24509 22.1 3.01807 21.9391 2.93373 21.6986C2.84952 21.4586 2.92585 21.1916 3.12407 21.0323L3.1241 21.0323L3.12448 21.032L3.12476 21.0318L3.12509 21.0315ZM7.3999 10.5C7.3999 10.1687 7.66853 9.90002 7.9999 9.90002H15.9999C16.3313 9.90002 16.5999 10.1687 16.5999 10.5C16.5999 10.8314 16.3313 11.1 15.9999 11.1H7.9999C7.66853 11.1 7.3999 10.8314 7.3999 10.5ZM7.3999 14C7.3999 13.6687 7.66853 13.4 7.9999 13.4H12.5999C12.9313 13.4 13.1999 13.6687 13.1999 14C13.1999 14.3314 12.9313 14.6 12.5999 14.6H7.9999C7.66853 14.6 7.3999 14.3314 7.3999 14Z" fill="#0068FF"/>
</svg>
