<svg width="24" height="24" viewBox="0 0 24 24" fill="none" xmlns="http://www.w3.org/2000/svg">
<path fill-rule="evenodd" clip-rule="evenodd" d="M3.12521 21.0315L3.12647 21.0305L3.14087 21.0185C3.15459 21.0069 3.17623 20.9883 3.20424 20.9632C3.2604 20.9129 3.34143 20.8371 3.43531 20.7398C3.62513 20.5429 3.85709 20.2686 4.04426 19.9477C4.41522 19.3118 4.56743 18.5957 4.02522 17.867C2.75691 16.2785 1.90002 14.2525 1.90002 12C1.90002 6.6354 6.50291 2.40002 12 2.40002C17.4971 2.40002 22.1 6.6354 22.1 12C22.1 17.3646 17.4971 21.6 12 21.6C11.0541 21.6 10.2065 21.4947 9.35888 21.2832C8.74209 21.1388 8.40248 21.2475 7.70293 21.4712L7.54407 21.5219C6.71151 21.7862 5.57447 22.1 3.50002 22.1C3.24521 22.1 3.01819 21.9391 2.93385 21.6986C2.84965 21.4586 2.92597 21.1916 3.12419 21.0323L3.12422 21.0323L3.1246 21.032L3.12488 21.0318L3.12521 21.0315ZM7.40002 10.5C7.40002 10.1687 7.66865 9.90002 8.00002 9.90002H16C16.3314 9.90002 16.6 10.1687 16.6 10.5C16.6 10.8314 16.3314 11.1 16 11.1H8.00002C7.66865 11.1 7.40002 10.8314 7.40002 10.5ZM7.40002 14C7.40002 13.6687 7.66865 13.4 8.00002 13.4H12.6C12.9314 13.4 13.2 13.6687 13.2 14C13.2 14.3314 12.9314 14.6 12.6 14.6H8.00002C7.66865 14.6 7.40002 14.3314 7.40002 14Z" fill="white"/>
</svg>
