<svg width="24" height="24" viewBox="0 0 24 24" fill="none" xmlns="http://www.w3.org/2000/svg">
<path d="M16 3.25H6C4.483 3.25 3.25 4.483 3.25 6V19C3.25 20.517 4.483 21.75 6 21.75H15C15.338 21.75 15.635 21.523 15.724 21.197L18.724 10.197C18.742 10.133 18.75 10.067 18.75 10V6C18.75 4.483 17.517 3.25 16 3.25Z" fill="#B2D2FF"/>
<path d="M15 21.75C18.7279 21.75 21.75 18.7279 21.75 15C21.75 11.2721 18.7279 8.25 15 8.25C11.2721 8.25 8.25 11.2721 8.25 15C8.25 18.7279 11.2721 21.75 15 21.75Z" fill="#0068FF"/>
<path d="M14 17.542C13.68 17.542 13.359 17.421 13.116 17.177L11.47 15.531C11.177 15.238 11.177 14.763 11.47 14.47C11.763 14.177 12.238 14.177 12.531 14.47L14.001 15.94L17.471 12.47C17.764 12.177 18.239 12.177 18.532 12.47C18.825 12.763 18.825 13.238 18.532 13.531L14.886 17.177C14.643 17.421 14.323 17.542 14.002 17.542H14Z" fill="#B2D2FF"/>
<path d="M14 2H8C7.44772 2 7 2.44772 7 3V4C7 4.55228 7.44772 5 8 5H14C14.5523 5 15 4.55228 15 4V3C15 2.44772 14.5523 2 14 2Z" fill="#0068FF"/>
</svg>
