<svg width="24" height="24" viewBox="0 0 24 24" fill="none" xmlns="http://www.w3.org/2000/svg">
<path d="M20.084 9.79103L14.75 7.50503V4.30903C14.75 3.75903 14.499 3.25203 14.062 2.91803C13.626 2.58503 13.072 2.47603 12.541 2.62103L4.27698 4.87403C3.08398 5.19903 2.25098 6.29103 2.25098 7.52703V18.999C2.25098 20.516 3.48398 21.749 5.00098 21.749H19.001C20.518 21.749 21.751 20.516 21.751 18.999V12.318C21.751 11.217 21.097 10.225 20.085 9.79003L20.084 9.79103Z" fill="#B2D2FF"/>
<path d="M10.75 12C10.75 12.414 10.414 12.75 10 12.75H7C6.586 12.75 6.25 12.414 6.25 12C6.25 11.586 6.586 11.25 7 11.25H10C10.414 11.25 10.75 11.586 10.75 12ZM10 8.25H7C6.586 8.25 6.25 8.586 6.25 9C6.25 9.414 6.586 9.75 7 9.75H10C10.414 9.75 10.75 9.414 10.75 9C10.75 8.586 10.414 8.25 10 8.25ZM11 21.75V17C11 16.448 10.552 16 10 16H7C6.448 16 6 16.448 6 17V21.75H11Z" fill="#0068FF"/>
<path d="M18.75 17C18.75 17.414 18.414 17.75 18 17.75H17C16.586 17.75 16.25 17.414 16.25 17C16.25 16.586 16.586 16.25 17 16.25H18C18.414 16.25 18.75 16.586 18.75 17ZM17 14.75H18C18.414 14.75 18.75 14.414 18.75 14C18.75 13.586 18.414 13.25 18 13.25H17C16.586 13.25 16.25 13.586 16.25 14C16.25 14.414 16.586 14.75 17 14.75Z" fill="#0068FF"/>
</svg>
