<svg width="24" height="24" viewBox="0 0 24 24" fill="none" xmlns="http://www.w3.org/2000/svg">
<path d="M16 13.75H12.75V21C12.75 21.414 12.414 21.75 12 21.75C11.586 21.75 11.25 21.414 11.25 21V13.75H8C7.586 13.75 7.25 13.414 7.25 13C7.25 12.586 7.586 12.25 8 12.25H16C16.414 12.25 16.75 12.586 16.75 13C16.75 13.414 16.414 13.75 16 13.75ZM7.181 15.25H3.75V12C3.75 11.586 3.414 11.25 3 11.25C2.586 11.25 2.25 11.586 2.25 12V21C2.25 21.414 2.586 21.75 3 21.75C3.414 21.75 3.75 21.414 3.75 21V16.75H7.181C7.299 16.75 7.403 16.834 7.426 16.951L8.265 21.147C8.336 21.503 8.65 21.75 8.999 21.75C9.048 21.75 9.098 21.746 9.147 21.735C9.552 21.654 9.816 21.259 9.735 20.853L8.896 16.656C8.733 15.841 8.011 15.25 7.18 15.25H7.181ZM21 11.25C20.586 11.25 20.25 11.586 20.25 12V15.25H16.819C15.988 15.25 15.266 15.841 15.103 16.657L14.264 20.853C14.183 21.259 14.447 21.654 14.852 21.735C14.902 21.745 14.952 21.75 15 21.75C15.35 21.75 15.663 21.503 15.734 21.147L16.573 16.951C16.596 16.834 16.7 16.75 16.818 16.75H20.249V21C20.249 21.414 20.585 21.75 20.999 21.75C21.413 21.75 21.749 21.414 21.749 21V12C21.749 11.586 21.414 11.25 21 11.25Z" fill="#B2D2FF"/>
<path d="M16 2.25H8C7.0335 2.25 6.25 3.0335 6.25 4V8C6.25 8.9665 7.0335 9.75 8 9.75H16C16.9665 9.75 17.75 8.9665 17.75 8V4C17.75 3.0335 16.9665 2.25 16 2.25Z" fill="#0068FF"/>
</svg>
