<svg width="24" height="24" viewBox="0 0 24 24" fill="none" xmlns="http://www.w3.org/2000/svg">
<path d="M20.271 17.138C19.052 13.617 15.729 11.25 12 11.25C8.27102 11.25 4.94802 13.616 3.72902 17.138C3.44102 17.968 3.57202 18.859 4.08702 19.583C4.60802 20.313 5.45202 20.75 6.34602 20.75H17.653C18.547 20.75 19.391 20.313 19.912 19.583C20.427 18.858 20.558 17.968 20.271 17.138Z" fill="#B2D2FF"/>
<path d="M14.653 15.534C14.764 15.961 14.641 16.419 14.33 16.731L12.888 18.184C12.652 18.422 12.337 18.553 12.002 18.553H12C11.663 18.553 11.348 18.42 11.111 18.18L9.677 16.725C9.37 16.412 9.249 15.973 9.353 15.549L9.776 13.833C10.468 14.098 11.216 14.249 12 14.249C12.779 14.249 13.522 14.099 14.211 13.838L14.654 15.533L14.653 15.534ZM12 3.25C9.381 3.25 7.25 5.381 7.25 8C7.25 10.619 9.381 12.75 12 12.75C14.619 12.75 16.75 10.619 16.75 8C16.75 5.381 14.619 3.25 12 3.25Z" fill="#0068FF"/>
</svg>
