<svg width="88" height="76" viewBox="0 0 88 76" fill="none" xmlns="http://www.w3.org/2000/svg">
<path d="M110.594 35.8188C106.438 34.6883 103.506 30.9703 103.39 26.6685C103.217 20.1816 96.8787 15.6708 90.6868 17.6226C86.5816 18.9241 82.1004 17.3724 79.6769 13.8075C76.0279 8.44784 68.2538 8.08038 64.0965 13.0641C61.3399 16.3734 56.7413 17.4999 52.777 15.812C46.8096 13.2788 40.0623 17.1743 39.2724 23.6089C38.7521 27.886 35.4831 31.3154 31.2329 32.0379C24.8324 33.1362 21.2732 40.0469 24.086 45.9029C25.9616 49.7841 25.0595 54.4304 21.8855 57.345C17.0934 61.7213 17.8364 69.4758 23.3673 72.8698C27.0347 75.1213 28.7991 79.5128 27.6898 83.6836C26.0346 89.955 30.8366 96.0695 37.3213 95.937C41.625 95.8463 45.4847 98.5953 46.812 102.698C48.8095 108.876 56.1635 111.421 61.5518 107.796C65.129 105.392 69.8557 105.612 73.1954 108.35C78.2078 112.463 85.7662 110.629 88.3484 104.674C90.0589 100.724 94.1579 98.3578 98.4337 98.8514C104.877 99.6084 110.249 93.9638 109.194 87.5667C108.498 83.3154 110.665 79.1021 114.535 77.2059C120.368 74.352 121.842 66.711 117.49 61.8922C114.601 58.6912 114.156 53.9843 116.38 50.2923C119.737 44.7426 116.853 37.5209 110.584 35.8245L110.594 35.8188Z" fill="white"/>
<path fill-rule="evenodd" clip-rule="evenodd" d="M76.7621 51.6225C76.2568 55.7901 73.8696 59.6746 69.9582 61.9328C66.0497 64.1894 61.4892 64.3161 57.6302 62.6684C56.3917 62.1415 54.9592 62.721 54.4307 63.9566C53.9038 65.195 54.4833 66.6276 55.7189 67.1561C60.9415 69.3785 67.1078 69.2064 72.3952 66.1537C77.6854 63.0994 80.9176 57.8453 81.6015 52.2128C81.7644 50.8768 80.8107 49.6603 79.4747 49.4974C78.1404 49.3373 76.9251 50.2866 76.7621 51.6225Z" fill="#0068FF"/>
<path d="M49.3609 52.2511C51.6921 50.9053 52.4908 47.9244 51.1449 45.5933C49.799 43.2621 46.8182 42.4634 44.487 43.8093C42.1559 45.1552 41.3572 48.136 42.7031 50.4672C44.0489 52.7983 47.0298 53.597 49.3609 52.2511Z" fill="#0068FF"/>
<path fill-rule="evenodd" clip-rule="evenodd" d="M74.5642 35.1825L68.5519 35.5433L71.8706 30.5169C72.614 29.3936 72.3034 27.8808 71.1817 27.1402C70.0584 26.3968 68.5456 26.7074 67.805 27.8291L61.8001 36.9239C61.2917 37.694 61.2611 38.6871 61.7225 39.4863C62.1839 40.2855 63.0593 40.7555 63.9804 40.7002L74.8591 40.0473C76.2009 39.9667 77.2262 38.8119 77.1441 37.4674C77.0636 36.1257 75.9088 35.1003 74.5642 35.1825Z" fill="#0068FF"/>
</svg>
