<svg width="87" height="86" viewBox="0 0 87 86" fill="none" xmlns="http://www.w3.org/2000/svg">
<path d="M110.594 44.8188C106.438 43.6883 103.506 39.9703 103.39 35.6685C103.217 29.1816 96.8787 24.6708 90.6868 26.6226C86.5816 27.9241 82.1004 26.3724 79.6769 22.8075C76.0279 17.4478 68.2538 17.0804 64.0965 22.0641C61.3399 25.3734 56.7413 26.4999 52.777 24.812C46.8096 22.2788 40.0623 26.1743 39.2724 32.6089C38.7521 36.886 35.4831 40.3154 31.2329 41.0379C24.8324 42.1363 21.2732 49.0469 24.086 54.9029C25.9616 58.7841 25.0595 63.4304 21.8855 66.345C17.0934 70.7213 17.8364 78.4758 23.3673 81.8698C27.0347 84.1213 28.7991 88.5129 27.6898 92.6836C26.0346 98.955 30.8366 105.069 37.3213 104.937C41.625 104.846 45.4847 107.595 46.812 111.698C48.8095 117.876 56.1635 120.421 61.5518 116.796C65.129 114.392 69.8557 114.612 73.1954 117.35C78.2078 121.463 85.7662 119.629 88.3484 113.674C90.0589 109.724 94.1579 107.358 98.4337 107.851C104.877 108.608 110.249 102.964 109.194 96.5667C108.498 92.3154 110.665 88.1021 114.535 86.2059C120.368 83.352 121.842 75.7111 117.49 70.8922C114.601 67.6912 114.156 62.9843 116.38 59.2923C119.737 53.7426 116.853 46.5209 110.584 44.8245L110.594 44.8188Z" fill="white"/>
<path d="M52.7728 72.3276L78.9532 54.8538C80.9604 53.5142 83.6771 54.056 85.0167 56.0631L85.0596 56.1274C91.1974 65.3234 88.7146 77.772 79.5186 83.9098L79.4543 83.9527C70.2229 90.1141 57.7262 87.6217 51.5648 78.3902C50.2252 76.3831 50.767 73.6663 52.7741 72.3267L52.7728 72.3276Z" fill="#0068FF"/>
<path d="M87.4262 73.5121C86.0759 77.6199 83.3937 81.3233 79.5173 83.9107L79.453 83.9536C75.5581 86.5531 71.0877 87.6141 66.7547 87.2787C66.9783 82.5595 69.3634 78.0019 73.5954 75.1773C77.8274 72.3527 82.9736 71.8951 87.4262 73.5121Z" fill="#C7E0FF"/>
<path fill-rule="evenodd" clip-rule="evenodd" d="M74.5639 44.1825L68.5516 44.5433L71.8703 39.5169C72.6137 38.3936 72.3031 36.8809 71.1814 36.1403C70.0581 35.3968 68.5453 35.7074 67.8047 36.8291L61.7998 45.9239C61.2914 46.694 61.2608 47.6872 61.7222 48.4863C62.1836 49.2855 63.059 49.7555 63.9801 49.7002L74.8588 49.0473C76.2006 48.9667 77.2259 47.8119 77.1438 46.4674C77.0632 45.1257 75.9084 44.1003 74.5639 44.1825Z" fill="#0068FF"/>
<path fill-rule="evenodd" clip-rule="evenodd" d="M40.4773 58.6358L46.4897 58.2749L43.171 63.3013C42.4276 64.4246 42.7382 65.9374 43.8599 66.678C44.9832 67.4214 46.496 67.1108 47.2366 65.9891L53.2414 56.8943C53.7499 56.1243 53.7805 55.1311 53.3191 54.332C52.8577 53.5328 51.9823 53.0627 51.0612 53.118L40.1824 53.771C38.8407 53.8515 37.8153 55.0063 37.8975 56.3509C37.978 57.6926 39.1328 58.718 40.4773 58.6358Z" fill="#0068FF"/>
</svg>
