<svg width="88" height="76" viewBox="0 0 88 76" fill="none" xmlns="http://www.w3.org/2000/svg">
<path d="M110.42 35.8188C106.264 34.6883 103.333 30.9703 103.216 26.6685C103.043 20.1816 96.7049 15.6708 90.513 17.6226C86.4078 18.9241 81.9266 17.3724 79.5031 13.8075C75.8541 8.44784 68.08 8.08038 63.9227 13.0641C61.1661 16.3734 56.5675 17.4999 52.6032 15.812C46.6358 13.2788 39.8885 17.1743 39.0986 23.6089C38.5783 27.886 35.3092 31.3154 31.0591 32.0379C24.6586 33.1362 21.0994 40.0469 23.9122 45.9029C25.7877 49.7841 24.8856 54.4304 21.7117 57.345C16.9196 61.7213 17.6625 69.4758 23.1935 72.8698C26.8608 75.1213 28.6253 79.5128 27.516 83.6836C25.8607 89.955 30.6627 96.0695 37.1475 95.937C41.4512 95.8463 45.3109 98.5953 46.6382 102.698C48.6357 108.876 55.9897 111.421 61.378 107.796C64.9552 105.392 69.6819 105.612 73.0216 108.35C78.034 112.463 85.5924 110.629 88.1746 104.674C89.8851 100.724 93.9841 98.3578 98.2598 98.8514C104.703 99.6084 110.076 93.9638 109.02 87.5667C108.324 83.3154 110.491 79.1021 114.361 77.2059C120.194 74.352 121.668 66.711 117.317 61.8922C114.427 58.6912 113.982 53.9843 116.206 50.2923C119.563 44.7426 116.679 37.5209 110.41 35.8245L110.42 35.8188Z" fill="white"/>
<path fill-rule="evenodd" clip-rule="evenodd" d="M76.5883 51.6225C76.0829 55.79 73.6957 59.6745 69.7844 61.9328C65.8758 64.1894 61.3153 64.3161 57.4563 62.6684C56.2179 62.1415 54.7853 62.721 54.2568 63.9566C53.7299 65.195 54.3094 66.6276 55.545 67.1561C60.7676 69.3785 66.9339 69.2064 72.2213 66.1537C77.5115 63.0994 80.7437 57.8453 81.4276 52.2128C81.5905 50.8768 80.6368 49.6603 79.3008 49.4974C77.9665 49.3373 76.7512 50.2866 76.5883 51.6225Z" fill="#0068FF"/>
<path fill-rule="evenodd" clip-rule="evenodd" d="M74.3903 35.1825L68.378 35.5433L71.6967 30.5169C72.4401 29.3936 72.1295 27.8808 71.0078 27.1402C69.8845 26.3968 68.3717 26.7074 67.6311 27.8291L61.6262 36.9239C61.1178 37.694 61.0872 38.6871 61.5486 39.4863C62.01 40.2855 62.8854 40.7555 63.8065 40.7002L74.6853 40.0473C76.027 39.9667 77.0524 38.8119 76.9702 37.4674C76.8897 36.1257 75.7349 35.1003 74.3903 35.1825Z" fill="#0068FF"/>
<path fill-rule="evenodd" clip-rule="evenodd" d="M43.9971 54.3013L47.3158 49.2749L41.3035 49.6358C39.959 49.718 38.8042 48.6926 38.7236 47.3509C38.6415 46.0063 39.6669 44.8515 41.0086 44.771L51.8873 44.118C52.8084 44.0627 53.6839 44.5328 54.1453 45.3319C54.6067 46.1311 54.576 47.1243 54.0676 47.8943L48.0627 56.9891C47.3221 58.1108 45.8093 58.4214 44.686 57.678C43.5643 56.9374 43.2537 55.4246 43.9971 54.3013Z" fill="#0068FF"/>
</svg>
