<svg width="24" height="24" viewBox="0 0 24 24" fill="none" xmlns="http://www.w3.org/2000/svg">
<path d="M17 3.25012H7C5.48122 3.25012 4.25 4.48134 4.25 6.00012V19.0001C4.25 20.5189 5.48122 21.7501 7 21.7501H17C18.5188 21.7501 19.75 20.5189 19.75 19.0001V6.00012C19.75 4.48134 18.5188 3.25012 17 3.25012Z" fill="#BAD7FF"/>
<path d="M8 5.75012C8.414 5.75012 8.75 5.41412 8.75 5.00012V3.00012C8.75 2.58612 8.414 2.25012 8 2.25012C7.586 2.25012 7.25 2.58612 7.25 3.00012V5.00012C7.25 5.41412 7.586 5.75012 8 5.75012Z" fill="#0068FF"/>
<path d="M12 5.75012C12.414 5.75012 12.75 5.41412 12.75 5.00012V3.00012C12.75 2.58612 12.414 2.25012 12 2.25012C11.586 2.25012 11.25 2.58612 11.25 3.00012V5.00012C11.25 5.41412 11.586 5.75012 12 5.75012Z" fill="#0068FF"/>
<path d="M16 2.25012C15.586 2.25012 15.25 2.58612 15.25 3.00012V5.00012C15.25 5.41412 15.586 5.75012 16 5.75012C16.414 5.75012 16.75 5.41412 16.75 5.00012V3.00012C16.75 2.58612 16.414 2.25012 16 2.25012Z" fill="#0068FF"/>
<path d="M16 8.25012H8C7.586 8.25012 7.25 8.58612 7.25 9.00012C7.25 9.41412 7.586 9.75012 8 9.75012H16C16.414 9.75012 16.75 9.41412 16.75 9.00012C16.75 8.58612 16.414 8.25012 16 8.25012Z" fill="#0068FF"/>
<path d="M16 11.2501H8C7.586 11.2501 7.25 11.5861 7.25 12.0001C7.25 12.4141 7.586 12.7501 8 12.7501H16C16.414 12.7501 16.75 12.4141 16.75 12.0001C16.75 11.5861 16.414 11.2501 16 11.2501Z" fill="#0068FF"/>
<path d="M12 14.2501H8C7.586 14.2501 7.25 14.5861 7.25 15.0001C7.25 15.4141 7.586 15.7501 8 15.7501H12C12.414 15.7501 12.75 15.4141 12.75 15.0001C12.75 14.5861 12.414 14.2501 12 14.2501Z" fill="#0068FF"/>
</svg>
