<svg width="24" height="24" viewBox="0 0 24 24" fill="none" xmlns="http://www.w3.org/2000/svg">
<path d="M8.25007 9C8.25007 6.933 9.93207 5.25 12.0001 5.25C14.0681 5.25 15.7501 6.933 15.7501 9C15.7501 11.067 14.0681 12.75 12.0001 12.75C9.93207 12.75 8.25007 11.067 8.25007 9ZM15.9001 12.5C14.9501 13.57 13.5501 14.25 12.0001 14.25C10.4501 14.25 9.05007 13.57 8.10007 12.5C6.72007 13.47 5.71007 14.96 5.37007 16.71C5.28007 17.2 5.41007 17.71 5.74007 18.1C6.07007 18.51 6.57007 18.75 7.10007 18.75H16.9001C17.4301 18.75 17.9301 18.51 18.2601 18.1C18.5901 17.71 18.7201 17.2 18.6301 16.71C18.2901 14.96 17.2801 13.47 15.9001 12.5Z" fill="#B2D2FF"/>
<path d="M21.2499 15.04C20.9399 15.47 20.4599 15.72 19.9399 15.75C19.4199 13.91 18.2799 12.34 16.7299 11.26C17.0699 10.56 17.2499 9.79 17.2499 9C17.2499 7.72 16.7799 6.53 16.0099 5.61C16.4599 5.38 16.9599 5.25 17.4999 5.25C19.2899 5.25 20.7499 6.71 20.7499 8.5C20.7499 9.43 20.3499 10.27 19.7199 10.86C20.5699 11.52 21.2099 12.43 21.5299 13.49C21.6899 14.03 21.5899 14.59 21.2499 15.04ZM6.49995 5.25C4.70995 5.25 3.24995 6.71 3.24995 8.5C3.24995 9.43 3.64995 10.27 4.27995 10.86C3.42995 11.52 2.78995 12.43 2.46995 13.49C2.30995 14.03 2.40995 14.59 2.74995 15.04C3.05995 15.47 3.53995 15.72 4.05995 15.75C4.57995 13.91 5.71995 12.34 7.26995 11.26C6.92995 10.56 6.74995 9.79 6.74995 9C6.74995 7.72 7.21995 6.53 7.98995 5.61C7.53995 5.38 7.03995 5.25 6.49995 5.25Z" fill="#0068FF"/>
</svg>
