<svg width="24" height="24" viewBox="0 0 24 24" fill="none" xmlns="http://www.w3.org/2000/svg">
<path d="M12.75 16V21C12.75 21.414 12.414 21.75 12 21.75C11.586 21.75 11.25 21.414 11.25 21V16C11.25 15.586 11.586 15.25 12 15.25C12.414 15.25 12.75 15.586 12.75 16ZM12 2.25C11.586 2.25 11.25 2.586 11.25 3V5C11.25 5.414 11.586 5.75 12 5.75C12.414 5.75 12.75 5.414 12.75 5V3C12.75 2.586 12.414 2.25 12 2.25ZM12 9.25C11.586 9.25 11.25 9.586 11.25 10V12C11.25 12.414 11.586 12.75 12 12.75C12.414 12.75 12.75 12.414 12.75 12V10C12.75 9.586 12.414 9.25 12 9.25Z" fill="#0068FF"/>
<path d="M19.03 8.737L18.03 9.737C17.7 10.068 17.26 10.25 16.793 10.25H9.20701C8.24201 10.25 7.45701 9.465 7.45701 8.5V6.5C7.45701 5.535 8.24201 4.75 9.20701 4.75H16.793C17.261 4.75 17.7 4.932 18.03 5.263L19.03 6.263C19.713 6.946 19.713 8.054 19.03 8.737ZM14.793 11.25H7.20701C6.73901 11.25 6.30001 11.432 5.97001 11.763L4.97001 12.763C4.28701 13.446 4.28701 14.555 4.97001 15.238L5.97001 16.238C6.30001 16.569 6.74001 16.751 7.20701 16.751H14.793C15.758 16.751 16.543 15.966 16.543 15.001V13.001C16.543 12.036 15.758 11.251 14.793 11.251V11.25Z" fill="#B2D2FF"/>
</svg>
